<svg xmlns="http://www.w3.org/2000/svg" xmlns:xlink="http://www.w3.org/1999/xlink" viewBox="0 0 758.31 827.38"><defs><style>.cls-1{isolation:isolate;}.cls-2{fill:#4a7f00;}.cls-3{mix-blend-mode:screen;fill:url(#linear-gradient);}.cls-4{mix-blend-mode:color-burn;}.cls-5{fill:#d9d9d9;}.cls-6{fill:#fff;}</style><linearGradient id="linear-gradient" x1="147.52" y1="498.93" x2="853.12" y2="498.93" gradientUnits="userSpaceOnUse"><stop offset="0.5"/><stop offset="0.5" stop-color="#494949"/><stop offset="1"/></linearGradient></defs><g class="cls-1"><g id="Camada_1" data-name="Camada 1"><path class="cls-2" d="M501.53,109.38s59,11.89,187,44.89c121,31.18,163.35,43.65,163.35,43.65-.28.82,41.86,466.24-350.39,690.56C84.11,664.16,152,200.3,151.14,197.92c0,0,42.39-12.47,163.35-43.65C442.53,121.27,501.53,109.38,501.53,109.38Z" transform="translate(-122.4 -86.62)"/><path class="cls-3" d="M501.53,109.38s59,11.89,187,44.89c121,31.18,163.35,43.65,163.35,43.65-.28.82,41.86,466.24-350.39,690.56C84.11,664.16,152,200.3,151.14,197.92c0,0,42.39-12.47,163.35-43.65C442.53,121.27,501.53,109.38,501.53,109.38Z" transform="translate(-122.4 -86.62)"/><g class="cls-4"><path class="cls-5" d="M501.53,170.22c22.84,5,79.23,17.72,172.19,41.68,55.31,14.25,94.14,24.59,119.83,31.56-1,111.76-30.06,406.9-293,576C365.21,738,275.2,618.79,232.8,464.64,208.23,375.3,205.71,294.31,207.61,244c25.66-7,65-17.47,121.73-32.08,93-24,149.35-36.71,172.19-41.68m0-60.84s-59,11.89-187,44.89c-121,31.18-163.35,43.65-163.35,43.65.82,2.38-67,466.24,350.39,690.56C893.78,664.16,851.64,198.74,851.92,197.92c0,0-42.39-12.47-163.35-43.65-128-33-187-44.89-187-44.89Z" transform="translate(-122.4 -86.62)"/></g><path class="cls-6" d="M501.87,914,491,908.14c-388.54-208.81-370.71-622-362.49-707.44l-6.08-17.59,22.44-6.6c1.74-.51,44.14-12.94,164.08-43.85C436.08,99.89,494.69,88,497.12,87.51l4.41-.89,4.41.89c2.43.49,61,12.38,188.2,45.15C814.08,163.57,856.48,176,858.22,176.51l22.48,6.61L874.47,201c3.57,63.78,12.84,492.52-361.86,706.82ZM172,215.19c-7.49,97.58-10.16,457.74,329.16,647.66C825.05,669.79,833.26,302.06,830.41,215,809,209,763.17,196.54,683,175.88c-106.59-27.47-165.59-40.34-181.47-43.7-15.88,3.36-74.88,16.23-181.47,43.7C239.1,196.74,193.22,209.27,172,215.19Z" transform="translate(-122.4 -86.62)"/><polygon class="cls-6" points="599.89 278.91 540.26 219.28 320.36 439.19 235.35 354.19 175.72 413.82 260.73 498.82 320.36 558.45 379.98 498.82 379.98 498.82 599.89 278.91"/></g></g></svg>